<svg width="6" height="6" viewBox="0 0 6 6" fill="none" xmlns="http://www.w3.org/2000/svg">
<path d="M5.9827 2.8192C5.98968 3.14285 5.92997 3.46451 5.80723 3.76476C5.68449 4.06501 5.50126 4.33761 5.2686 4.56605C5.03594 4.79448 4.75868 4.97402 4.45362 5.09379C4.14856 5.21357 3.82205 5.2711 3.4938 5.2629C2.81202 5.23178 2.16919 4.94069 1.70101 4.4511C1.23283 3.96151 0.97595 3.31174 0.984586 2.63894C1.00883 1.98552 1.29537 1.36834 1.78118 0.923208C2.26699 0.478073 2.91226 0.241416 3.57505 0.265322C4.23784 0.289228 4.86387 0.571747 5.31538 1.05069C5.7669 1.52963 6.00695 2.16578 5.9827 2.8192Z" fill="#67C082" fill-opacity="0.5"/>
</svg>
