<svg width="28" height="28" viewBox="0 0 28 28" fill="none" xmlns="http://www.w3.org/2000/svg">
<path d="M14 0C11.2311 0 8.52431 0.821086 6.22202 2.35943C3.91973 3.89776 2.12532 6.08427 1.06569 8.64243C0.00606598 11.2006 -0.271181 14.0155 0.269012 16.7313C0.809205 19.447 2.14258 21.9416 4.10051 23.8995C6.05845 25.8574 8.55301 27.1908 11.2687 27.731C13.9845 28.2712 16.7994 27.9939 19.3576 26.9343C21.9157 25.8747 24.1022 24.0803 25.6406 21.778C27.1789 19.4757 28 16.7689 28 14C27.9961 10.2882 26.5198 6.72949 23.8952 4.10483C21.2705 1.48017 17.7118 0.00391976 14 0ZM14 25.8461C11.6571 25.8461 9.36672 25.1514 7.41863 23.8497C5.47054 22.548 3.95219 20.6979 3.05559 18.5333C2.15898 16.3687 1.92439 13.9869 2.38147 11.6889C2.83856 9.391 3.9668 7.28022 5.62351 5.6235C7.28022 3.96679 9.39101 2.83855 11.6889 2.38147C13.9869 1.92438 16.3687 2.15897 18.5333 3.05558C20.6979 3.95219 22.548 5.47054 23.8497 7.41863C25.1514 9.36672 25.8462 11.6571 25.8462 14C25.8426 17.1407 24.5934 20.1517 22.3726 22.3726C20.1518 24.5934 17.1407 25.8426 14 25.8461ZM11.8462 10.7692C11.8462 11.0548 11.7327 11.3288 11.5307 11.5307C11.3288 11.7327 11.0549 11.8462 10.7692 11.8462H9.69231V17.2308C9.69231 17.5164 9.57885 17.7903 9.37689 17.9923C9.17493 18.1942 8.90101 18.3077 8.61539 18.3077C8.32977 18.3077 8.05585 18.1942 7.85389 17.9923C7.65193 17.7903 7.53847 17.5164 7.53847 17.2308V11.8462H6.46154C6.17593 11.8462 5.90201 11.7327 5.70004 11.5307C5.49808 11.3288 5.38462 11.0548 5.38462 10.7692C5.38462 10.4836 5.49808 10.2097 5.70004 10.0077C5.90201 9.80577 6.17593 9.69231 6.46154 9.69231H10.7692C11.0549 9.69231 11.3288 9.80577 11.5307 10.0077C11.7327 10.2097 11.8462 10.4836 11.8462 10.7692ZM22.6154 10.7692V17.2308C22.6154 17.5164 22.5019 17.7903 22.3 17.9923C22.098 18.1942 21.8241 18.3077 21.5385 18.3077C21.2528 18.3077 20.9789 18.1942 20.777 17.9923C20.575 17.7903 20.4615 17.5164 20.4615 17.2308V13.6352L18.5769 15.789C18.4759 15.9036 18.3516 15.9954 18.2123 16.0583C18.0731 16.1211 17.922 16.1536 17.7692 16.1536C17.6164 16.1536 17.4654 16.1211 17.3261 16.0583C17.1869 15.9954 17.0626 15.9036 16.9615 15.789L15.0769 13.6352V17.2308C15.0769 17.5164 14.9635 17.7903 14.7615 17.9923C14.5595 18.1942 14.2856 18.3077 14 18.3077C13.7144 18.3077 13.4405 18.1942 13.2385 17.9923C13.0365 17.7903 12.9231 17.5164 12.9231 17.2308V10.7692C12.9237 10.5507 12.9907 10.3376 13.1153 10.1581C13.2399 9.97857 13.4161 9.84122 13.6206 9.76424C13.8251 9.68726 14.0482 9.67431 14.2602 9.7271C14.4722 9.77989 14.6632 9.89593 14.8077 10.0598L17.7692 13.4413L20.7308 10.0598C20.8753 9.89593 21.0662 9.77989 21.2783 9.7271C21.4903 9.67431 21.7134 9.68726 21.9179 9.76424C22.1224 9.84122 22.2986 9.97857 22.4232 10.1581C22.5478 10.3376 22.6148 10.5507 22.6154 10.7692Z" fill="#333333"/>
</svg>
