<svg width="20" height="21" viewBox="0 0 20 21" fill="none" xmlns="http://www.w3.org/2000/svg">
<path d="M19.5786 18.0581C19.8469 18.3263 19.9976 18.6902 19.9976 19.0696C19.9976 19.4489 19.8469 19.8128 19.5786 20.081C19.3104 20.3493 18.9465 20.5 18.5671 20.5C18.1877 20.5 17.8238 20.3493 17.5556 20.081L10 12.5235L2.44206 20.0787C2.17378 20.3469 1.80992 20.4976 1.43052 20.4976C1.05113 20.4976 0.687267 20.3469 0.418991 20.0787C0.150716 19.8104 3.99761e-09 19.4466 0 19.0672C-3.99762e-09 18.6878 0.150716 18.324 0.418991 18.0557L7.97693 10.5006L0.421371 2.9431C0.153095 2.67484 0.00238013 2.31101 0.00238013 1.93163C0.00238014 1.55225 0.153095 1.18842 0.421371 0.920156C0.689646 0.651897 1.05351 0.50119 1.4329 0.50119C1.8123 0.50119 2.17616 0.651897 2.44444 0.920156L10 8.47765L17.5579 0.918966C17.8262 0.650706 18.1901 0.5 18.5695 0.5C18.9489 0.5 19.3127 0.650706 19.581 0.918966C19.8493 1.18723 20 1.55106 20 1.93044C20 2.30982 19.8493 2.67365 19.581 2.94191L12.0231 10.5006L19.5786 18.0581Z" fill="#5A5A5A"/>
</svg>
