<svg width="29" height="29" viewBox="0 0 29 29" fill="none" xmlns="http://www.w3.org/2000/svg">
<rect width="29" height="29" rx="14.5" fill="#525759"/>
<path d="M19.7682 18.6569C19.9158 18.8045 19.9987 19.0046 19.9987 19.2133C19.9987 19.4219 19.9158 19.622 19.7682 19.7696C19.6207 19.9171 19.4206 20 19.2119 20C19.0032 20 18.8031 19.9171 18.6556 19.7696L14.5 15.6129L10.3431 19.7683C10.1956 19.9158 9.99546 19.9987 9.78679 19.9987C9.57812 19.9987 9.378 19.9158 9.23045 19.7683C9.08289 19.6207 9 19.4206 9 19.2119C9 19.0033 9.08289 18.8032 9.23045 18.6556L13.3873 14.5003L9.23175 10.3437C9.0842 10.1962 9.00131 9.99605 9.00131 9.7874C9.00131 9.57874 9.0842 9.37863 9.23175 9.23109C9.37931 9.08354 9.57943 9.00065 9.7881 9.00065C9.99677 9.00065 10.1969 9.08354 10.3444 9.23109L14.5 13.3877L18.6569 9.23043C18.8044 9.08289 19.0045 9 19.2132 9C19.4219 9 19.622 9.08289 19.7696 9.23043C19.9171 9.37797 20 9.57808 20 9.78674C20 9.9954 19.9171 10.1955 19.7696 10.3431L15.6127 14.5003L19.7682 18.6569Z" fill="white"/>
</svg>
