<svg width="28" height="32" viewBox="0 0 28 32" fill="none" xmlns="http://www.w3.org/2000/svg">
<path d="M4.18359 6.30859L5.54723 27.8471C5.612 29.0916 6.52905 30.0009 7.72905 30.0009H20.2745C21.4793 30.0009 22.3793 29.0916 22.4563 27.8471L23.82 6.30859" stroke="#AAAAAA" stroke-width="2.1875" stroke-linecap="round" stroke-linejoin="round"/>
<path d="M2 6.30859H26H2Z" fill="#AAAAAA"/>
<path d="M2 6.30859H26" stroke="#AAAAAA" stroke-width="2.1875" stroke-miterlimit="10" stroke-linecap="round"/>
<path d="M9.6353 6.3077V3.61539C9.63467 3.40308 9.67656 3.19274 9.75858 2.99648C9.84059 2.80021 9.9611 2.62188 10.1132 2.47176C10.2652 2.32163 10.4459 2.20266 10.6447 2.1217C10.8435 2.04074 11.0566 1.99938 11.2717 2.00001H16.7262C16.9413 1.99938 17.1543 2.04074 17.3532 2.1217C17.552 2.20266 17.7326 2.32163 17.8847 2.47176C18.0368 2.62188 18.1573 2.80021 18.2393 2.99648C18.3213 3.19274 18.3632 3.40308 18.3626 3.61539V6.3077M13.9989 10.6154V25.6923M9.08984 10.6154L9.6353 25.6923M18.908 10.6154L18.3626 25.6923" stroke="#AAAAAA" stroke-width="2.1875" stroke-linecap="round" stroke-linejoin="round"/>
</svg>
