<svg width="26" height="7" viewBox="0 0 26 7" fill="none" xmlns="http://www.w3.org/2000/svg">
<path d="M5.77778 3.5C5.77778 4.29565 5.47341 5.05871 4.93164 5.62132C4.38987 6.18393 3.65507 6.5 2.88889 6.5C2.12271 6.5 1.38791 6.18393 0.846136 5.62132C0.304364 5.05871 0 4.29565 0 3.5C0 2.70435 0.304364 1.94129 0.846136 1.37868C1.38791 0.816071 2.12271 0.5 2.88889 0.5C3.65507 0.5 4.38987 0.816071 4.93164 1.37868C5.47341 1.94129 5.77778 2.70435 5.77778 3.5ZM15.8889 3.5C15.8889 4.29565 15.5845 5.05871 15.0428 5.62132C14.501 6.18393 13.7662 6.5 13 6.5C12.2338 6.5 11.499 6.18393 10.9572 5.62132C10.4155 5.05871 10.1111 4.29565 10.1111 3.5C10.1111 2.70435 10.4155 1.94129 10.9572 1.37868C11.499 0.816071 12.2338 0.5 13 0.5C13.7662 0.5 14.501 0.816071 15.0428 1.37868C15.5845 1.94129 15.8889 2.70435 15.8889 3.5ZM26 3.5C26 4.29565 25.6956 5.05871 25.1539 5.62132C24.6121 6.18393 23.8773 6.5 23.1111 6.5C22.3449 6.5 21.6101 6.18393 21.0684 5.62132C20.5266 5.05871 20.2222 4.29565 20.2222 3.5C20.2222 2.70435 20.5266 1.94129 21.0684 1.37868C21.6101 0.816071 22.3449 0.5 23.1111 0.5C23.8773 0.5 24.6121 0.816071 25.1539 1.37868C25.6956 1.94129 26 2.70435 26 3.5Z" fill="#333333"/>
</svg>
