<svg width="30" height="30" viewBox="0 0 30 30" fill="none" xmlns="http://www.w3.org/2000/svg">
<path fill-rule="evenodd" clip-rule="evenodd" d="M14.2711 3.33249C10.4079 3.33249 7.32793 6.80333 7.74793 10.6242C7.78684 10.978 7.69631 11.3339 7.4931 11.6261C7.28989 11.9183 6.98773 12.1271 6.64251 12.2137C5.61137 12.478 4.71183 13.1089 4.11217 13.9883C3.51251 14.8678 3.25381 15.9356 3.38448 16.992C3.51514 18.0484 4.02622 19.021 4.82209 19.7279C5.61796 20.4348 6.64411 20.8275 7.70855 20.8325H9.16689C9.55366 20.8325 9.92459 20.9861 10.1981 21.2596C10.4716 21.5331 10.6252 21.9041 10.6252 22.2908C10.6252 22.6776 10.4716 23.0485 10.1981 23.322C9.92459 23.5955 9.55366 23.7492 9.16689 23.7492H7.70855C6.03251 23.7503 4.40725 23.1739 3.10634 22.1172C1.80542 21.0604 0.908267 19.5877 0.565883 17.947C0.2235 16.3063 0.456789 14.5978 1.22648 13.1089C1.99618 11.6201 3.25529 10.4418 4.79189 9.7725C4.81823 7.56157 5.61664 5.4294 7.04895 3.74495C8.48127 2.06049 10.4574 0.929741 12.6353 0.548349C14.8133 0.166958 17.056 0.558926 18.9755 1.65643C20.895 2.75393 22.3704 4.48791 23.1465 6.55833C25.1871 7.12109 26.9547 8.40432 28.1218 10.1703C29.2889 11.9363 29.7765 14.0655 29.4942 16.1634C29.212 18.2613 28.179 20.1859 26.5866 21.5806C24.9942 22.9753 22.9504 23.7458 20.8336 23.7492C20.4468 23.7492 20.0758 23.5955 19.8024 23.322C19.5289 23.0485 19.3752 22.6776 19.3752 22.2908C19.3752 21.9041 19.5289 21.5331 19.8024 21.2596C20.0758 20.9861 20.4468 20.8325 20.8336 20.8325C22.2992 20.8347 23.712 20.2851 24.7909 19.293C25.8697 18.3009 26.5356 16.939 26.656 15.4783C26.7764 14.0176 26.3425 12.5651 25.4406 11.4098C24.5388 10.2544 23.235 9.48091 21.7888 9.24312C21.5103 9.19708 21.2509 9.07198 21.0415 8.88273C20.8321 8.69348 20.6814 8.44804 20.6075 8.17562C20.2294 6.78474 19.4041 5.55694 18.2589 4.68167C17.1138 3.80639 15.7124 3.33228 14.2711 3.33249ZM16.4586 15.6058L18.3442 17.49C18.4798 17.6254 18.6407 17.7328 18.8178 17.806C18.9949 17.8792 19.1846 17.9168 19.3763 17.9166C19.5679 17.9165 19.7576 17.8786 19.9346 17.8052C20.1115 17.7317 20.2723 17.6241 20.4077 17.4885C20.5431 17.3529 20.6505 17.192 20.7237 17.0149C20.7969 16.8379 20.8345 16.6481 20.8344 16.4565C20.8342 16.2648 20.7964 16.0751 20.7229 15.8982C20.6494 15.7212 20.5419 15.5604 20.4063 15.425L16.2879 11.314C15.9462 10.9729 15.4831 10.7813 15.0002 10.7813C14.5174 10.7813 14.0543 10.9729 13.7125 11.314L9.59418 15.4265C9.32054 15.6999 9.16673 16.0709 9.16659 16.4577C9.16645 16.8446 9.32 17.2156 9.59345 17.4893C9.8669 17.7629 10.2379 17.9167 10.6247 17.9169C11.0116 17.917 11.3826 17.7634 11.6563 17.49L13.5419 15.6058V28.1242C13.5419 28.5109 13.6955 28.8819 13.969 29.1554C14.2425 29.4289 14.6134 29.5825 15.0002 29.5825C15.387 29.5825 15.7579 29.4289 16.0314 29.1554C16.3049 28.8819 16.4586 28.5109 16.4586 28.1242V15.6058Z" fill="#333333"/>
</svg>
