<svg width="23" height="29" viewBox="0 0 23 29" fill="none" xmlns="http://www.w3.org/2000/svg">
<path fill-rule="evenodd" clip-rule="evenodd" d="M0.195312 12.102C0.195312 5.77415 5.23927 0.615234 11.4974 0.615234C17.7555 0.615234 22.7995 5.77415 22.7995 12.102C22.7995 15.1568 21.9289 18.4377 20.3892 21.2716C18.8521 24.1016 16.6072 26.5609 13.7979 27.8746C13.0778 28.2117 12.2925 28.3865 11.4974 28.3865C10.7023 28.3865 9.91698 28.2117 9.19694 27.8746C6.38756 26.5609 4.14265 24.1029 2.60556 21.2716C1.0659 18.4377 0.195312 15.1568 0.195312 12.102ZM11.4974 2.55273C6.34106 2.55273 2.13281 6.81136 2.13281 12.102C2.13281 14.8106 2.91169 17.775 4.30798 20.3467C5.70556 22.921 7.68181 25.0277 10.0171 26.1192C10.4802 26.3362 10.9854 26.4486 11.4968 26.4486C12.0081 26.4486 12.5133 26.3362 12.9764 26.1192C15.313 25.0277 17.2892 22.921 18.6868 20.3467C20.0831 17.7763 20.862 14.8106 20.862 12.102C20.862 6.81136 16.6537 2.55273 11.4974 2.55273ZM11.4974 9.01107C11.1157 9.01107 10.7378 9.08624 10.3852 9.23229C10.0326 9.37834 9.71224 9.59242 9.44237 9.86229C9.1725 10.1322 8.95842 10.4525 8.81237 10.8051C8.66632 11.1577 8.59115 11.5357 8.59115 11.9173C8.59115 12.299 8.66632 12.6769 8.81237 13.0295C8.95842 13.3821 9.1725 13.7025 9.44237 13.9723C9.71224 14.2422 10.0326 14.4563 10.3852 14.6023C10.7378 14.7484 11.1157 14.8236 11.4974 14.8236C12.2682 14.8236 13.0074 14.5174 13.5524 13.9723C14.0975 13.4273 14.4036 12.6881 14.4036 11.9173C14.4036 11.1465 14.0975 10.4073 13.5524 9.86229C13.0074 9.31726 12.2682 9.01107 11.4974 9.01107ZM6.65365 11.9173C6.65365 10.6327 7.16397 9.40065 8.07235 8.49227C8.98073 7.58389 10.2128 7.07357 11.4974 7.07357C12.782 7.07357 14.0141 7.58389 14.9224 8.49227C15.8308 9.40065 16.3411 10.6327 16.3411 11.9173C16.3411 13.202 15.8308 14.434 14.9224 15.3424C14.0141 16.2507 12.782 16.7611 11.4974 16.7611C10.2128 16.7611 8.98073 16.2507 8.07235 15.3424C7.16397 14.434 6.65365 13.202 6.65365 11.9173Z" fill="black"/>
</svg>
