<svg width="36" height="18" viewBox="0 0 36 18" fill="none" xmlns="http://www.w3.org/2000/svg">
<path d="M21.4649 0.745387L28.215 0.745386C29.303 0.738096 30.3817 0.946101 31.389 1.35743C32.3963 1.76875 33.3123 2.37527 34.0843 3.14206C34.8562 3.90885 35.4689 4.82077 35.8869 5.8253C36.305 6.82984 36.5202 7.90715 36.5202 8.9952C36.5202 10.0833 36.305 11.1606 35.8869 12.1651C35.4689 13.1696 34.8562 14.0816 34.0843 14.8483C33.3123 15.6151 32.3963 16.2217 31.389 16.633C30.3817 17.0443 29.303 17.2523 28.215 17.245H25.9664C25.6676 17.2503 25.3709 17.1961 25.0933 17.0855C24.8158 16.9749 24.563 16.8102 24.3499 16.6009C24.1367 16.3916 23.9673 16.1419 23.8517 15.8664C23.736 15.5909 23.6764 15.2952 23.6762 14.9964C23.6761 14.6977 23.7354 14.4019 23.8508 14.1263C23.9662 13.8507 24.1354 13.6009 24.3483 13.3914C24.5613 13.1819 24.8139 13.0169 25.0913 12.906C25.3688 12.7951 25.6655 12.7406 25.9642 12.7457L28.216 12.7446C29.2077 12.7402 30.1573 12.343 30.8569 11.6401C31.5565 10.9373 31.9492 9.98586 31.9491 8.99415C31.9489 8.00243 31.556 7.05114 30.8562 6.34846C30.1563 5.64577 29.2067 5.24891 28.215 5.24471H21.4649C20.7352 5.24455 20.0213 5.45731 19.4106 5.85691C18.8 6.25651 18.3193 6.82558 18.0273 7.49437C17.9234 7.73408 17.8343 7.96318 17.7537 8.1838L17.4917 8.90611C17.1311 9.8607 16.7524 10.4939 15.4658 10.495C13.616 10.495 13.0019 9.40143 13.3519 7.49649C13.7028 5.60077 14.7062 3.88769 16.1882 2.65452C17.6701 1.42135 19.537 0.745901 21.4649 0.745387ZM8.71579 0.745386L10.9644 0.745386C11.5543 0.755357 12.1166 0.996614 12.5304 1.4172C12.9441 1.83778 13.1761 2.40404 13.1764 2.994C13.1766 3.58397 12.9452 4.15045 12.5319 4.57142C12.1185 4.99239 11.5564 5.23418 10.9665 5.24471L8.71685 5.24577C8.21898 5.23698 7.72436 5.32742 7.26182 5.51183C6.79929 5.69625 6.37811 5.97093 6.02287 6.31985C5.66763 6.66878 5.38544 7.08495 5.19276 7.5441C5.00008 8.00326 4.90077 8.49618 4.90063 8.99412C4.90049 9.49206 4.99952 9.98504 5.19194 10.4443C5.38436 10.9036 5.66631 11.3199 6.02136 11.669C6.3764 12.0182 6.79742 12.2931 7.25985 12.4777C7.72228 12.6624 8.21686 12.7531 8.71473 12.7446L15.4648 12.7446C16.1945 12.7448 16.9084 12.532 17.519 12.1324C18.1297 11.7328 18.6104 11.1638 18.9024 10.495C19.0063 10.2553 19.0954 10.0262 19.176 9.80554L19.438 9.08324C19.7986 8.12864 20.1783 7.49437 21.4639 7.49437C23.3137 7.49437 23.9278 8.58791 23.5778 10.4929C23.2269 12.3886 22.2235 14.1017 20.7415 15.3348C19.2596 16.568 17.3927 17.2434 15.4648 17.244L8.71473 17.244C7.62669 17.2512 6.54797 17.0432 5.54065 16.6319C4.53334 16.2206 3.61734 15.6141 2.8454 14.8473C2.07345 14.0805 1.46081 13.1686 1.04274 12.164C0.624678 11.1595 0.409449 10.0822 0.409449 8.99414C0.409449 7.90608 0.624678 6.82877 1.04274 5.82424C1.46081 4.8197 2.07345 3.90779 2.84539 3.141C3.61734 2.37421 4.53334 1.76769 5.54065 1.35637C6.54797 0.945041 7.62775 0.738096 8.71579 0.745386Z" fill="black"/>
</svg>
