<svg width="47" height="47" viewBox="0 0 47 47" fill="none" xmlns="http://www.w3.org/2000/svg">
<path d="M36.6205 15.5938C36.3573 19.2477 33.6467 22.0625 30.6908 22.0625C27.735 22.0625 25.0199 19.2486 24.7611 15.5938C24.4916 11.7925 27.1303 9.125 30.6908 9.125C34.2513 9.125 36.89 11.8616 36.6205 15.5938Z" stroke="black" stroke-width="3" stroke-linecap="round" stroke-linejoin="round"/>
<path d="M30.6871 27.8125C24.832 27.8125 19.2015 30.7207 17.791 36.3845C17.6041 37.1338 18.074 37.875 18.8439 37.875H42.5312C43.3012 37.875 43.7684 37.1338 43.5842 36.3845C42.1737 30.63 36.5432 27.8125 30.6871 27.8125Z" stroke="black" stroke-width="3" stroke-miterlimit="10"/>
<path d="M18.468 17.2055C18.2578 20.1237 16.0674 22.4219 13.7063 22.4219C11.3452 22.4219 9.15122 20.1246 8.94458 17.2055C8.72986 14.1697 10.8618 12 13.7063 12C16.5508 12 18.6827 14.2254 18.468 17.2055Z" stroke="black" stroke-width="3" stroke-linecap="round" stroke-linejoin="round"/>
<path d="M19.0087 27.9916C17.387 27.2486 15.6009 26.9629 13.7079 26.9629C9.03604 26.9629 4.53486 29.2854 3.40732 33.809C3.25908 34.4073 3.63463 34.9994 4.24916 34.9994H14.3368" stroke="black" stroke-width="3" stroke-miterlimit="10" stroke-linecap="round"/>
</svg>
