<svg width="21" height="16" viewBox="0 0 21 16" fill="none" xmlns="http://www.w3.org/2000/svg">
<path d="M10.5 0C13.287 0 15.763 1.257 17.526 2.813C18.411 3.594 19.14 4.471 19.654 5.344C20.159 6.201 20.5 7.13 20.5 8C20.5 8.87 20.16 9.799 19.654 10.656C19.14 11.529 18.411 12.406 17.526 13.187C15.763 14.743 13.286 16 10.5 16C7.713 16 5.237 14.743 3.474 13.187C2.589 12.406 1.86 11.529 1.346 10.656C0.84 9.799 0.5 8.87 0.5 8C0.5 7.13 0.84 6.201 1.346 5.344C1.86 4.471 2.589 3.594 3.474 2.813C5.237 1.257 7.714 0 10.5 0ZM10.5 2C8.316 2 6.292 2.993 4.798 4.312C4.054 4.968 3.466 5.685 3.069 6.359C2.663 7.049 2.5 7.62 2.5 8C2.5 8.38 2.663 8.951 3.069 9.641C3.466 10.315 4.054 11.031 4.798 11.688C6.292 13.007 8.316 14 10.5 14C12.684 14 14.708 13.007 16.202 11.688C16.946 11.031 17.534 10.315 17.931 9.641C18.337 8.951 18.5 8.38 18.5 8C18.5 7.62 18.337 7.049 17.931 6.359C17.534 5.685 16.946 4.969 16.202 4.312C14.708 2.993 12.684 2 10.5 2ZM10.5 5C10.588 5 10.675 5.004 10.761 5.011C10.5439 5.39185 10.4579 5.8335 10.5163 6.26798C10.5747 6.70246 10.7743 7.10572 11.0843 7.41571C11.3943 7.7257 11.7975 7.92525 12.232 7.98366C12.6665 8.04208 13.1081 7.95611 13.489 7.739C13.5416 8.34117 13.411 8.94518 13.1145 9.47189C12.8179 9.9986 12.3692 10.4234 11.827 10.6907C11.2849 10.958 10.6746 11.0553 10.0762 10.9699C9.47784 10.8844 8.91922 10.6202 8.47357 10.2118C8.02792 9.80343 7.71603 9.26995 7.57876 8.68129C7.44149 8.09262 7.48524 7.47621 7.70429 6.91284C7.92334 6.34946 8.30746 5.8654 8.80633 5.52407C9.3052 5.18274 9.89554 5.00008 10.5 5Z" fill="black"/>
</svg>
