<svg width="23" height="26" viewBox="0 0 23 26" fill="none" xmlns="http://www.w3.org/2000/svg">
<path d="M21.7017 0.138125C21.8126 0.212286 21.9035 0.3126 21.9664 0.430212C22.0294 0.547825 22.0623 0.679117 22.0625 0.8125V13C22.0625 13.1623 22.0138 13.3208 21.9229 13.4552C21.832 13.5896 21.7029 13.6936 21.5522 13.754L21.5474 13.7556L21.5376 13.7605L21.5002 13.7751C21.2867 13.8602 21.0716 13.9414 20.8551 14.0189C20.4261 14.1733 19.8298 14.3813 19.1537 14.5876C17.8277 14.9971 16.1004 15.4375 14.75 15.4375C13.3736 15.4375 12.2345 14.9825 11.2432 14.5844L11.1978 14.5681C10.1675 14.1538 9.29 13.8125 8.25 13.8125C7.1125 13.8125 5.58825 14.1863 4.28988 14.5876C3.70864 14.7691 3.13262 14.9669 2.5625 15.1807V25.1875C2.5625 25.403 2.4769 25.6097 2.32452 25.762C2.17215 25.9144 1.96549 26 1.75 26C1.53451 26 1.32785 25.9144 1.17548 25.762C1.0231 25.6097 0.9375 25.403 0.9375 25.1875V0.8125C0.9375 0.597012 1.0231 0.390349 1.17548 0.237976C1.32785 0.0856024 1.53451 0 1.75 0C1.96549 0 2.17215 0.0856024 2.32452 0.237976C2.4769 0.390349 2.5625 0.597012 2.5625 0.8125V1.27075C2.92975 1.14237 3.3685 0.9945 3.84625 0.84825C5.17225 0.442 6.90125 0 8.25 0C9.615 0 10.7265 0.450125 11.6966 0.843375L11.7665 0.872625C12.7772 1.2805 13.658 1.625 14.75 1.625C15.8875 1.625 17.4118 1.25125 18.7101 0.849875C19.4498 0.618265 20.181 0.360266 20.9023 0.076375L20.9331 0.065L20.9396 0.06175H20.9412M20.4375 1.98412C20.08 2.11087 19.6575 2.2555 19.1928 2.3985C17.8765 2.808 16.1508 3.24837 14.75 3.24837C13.3103 3.24837 12.163 2.78363 11.1701 2.38063L11.1571 2.37575C10.1382 1.96625 9.28837 1.625 8.25 1.625C7.16288 1.625 5.64025 1.99713 4.32562 2.40175C3.7326 2.58447 3.14468 2.78334 2.5625 2.99813V13.4517C2.92 13.325 3.3425 13.1804 3.80725 13.0374C5.1235 12.6262 6.84925 12.1875 8.25 12.1875C9.62638 12.1875 10.7655 12.6425 11.7568 13.0406L11.8022 13.0569C12.8325 13.4712 13.71 13.8125 14.75 13.8125C15.8355 13.8125 17.3598 13.4404 18.6744 13.0358C19.2674 12.853 19.8553 12.6542 20.4375 12.4394V1.98575V1.98412Z" fill="black"/>
</svg>
