<svg width="54" height="52" viewBox="0 0 54 52" fill="none" xmlns="http://www.w3.org/2000/svg">
<path fill-rule="evenodd" clip-rule="evenodd" d="M17.5272 33.0857L19.1697 25.6973C19.4088 24.6706 19.9474 23.731 20.7222 22.989L35.7297 8.66733C37.2515 7.17444 39.3178 6.31169 41.4897 6.26233C43.1277 6.23973 44.7072 6.84814 45.8772 7.95233C48.4336 10.861 48.1036 15.2046 45.1347 17.724L30.1272 32.1757C29.3566 32.9217 28.3809 33.4404 27.3147 33.6707L19.6422 35.2523H19.2147C18.6538 35.273 18.1181 35.0273 17.7813 34.5949C17.4445 34.1624 17.3495 33.5984 17.5272 33.0857ZM23.1072 25.3073C22.7919 25.6015 22.5729 25.9781 22.4772 26.3907L21.3747 31.439L26.6172 30.3557C27.0456 30.2635 27.4367 30.0526 27.7422 29.749L42.7497 15.2973C44.3937 14.0299 44.72 11.745 43.4922 10.0973C42.9546 9.60269 42.2328 9.3372 41.4897 9.36066C40.2085 9.4102 38.9978 9.93873 38.1147 10.834L23.1072 25.3073Z" fill="black"/>
<path d="M44.7972 23.6823C43.8703 23.694 43.1218 24.4147 43.1097 25.3073V37.6357C43.1399 39.3783 42.442 41.0595 41.1729 42.302C39.9037 43.5446 38.1696 44.2442 36.3597 44.244H14.9172C11.1763 44.1734 8.1787 41.2387 8.16719 37.6357V17.074C8.22861 13.4667 11.2831 10.5735 15.0297 10.574H27.8322C28.7642 10.574 29.5197 9.84646 29.5197 8.94899C29.5197 8.05153 28.7642 7.32399 27.8322 7.32399H14.9172C9.30682 7.32367 4.74134 11.6717 4.67969 17.074V37.6357C4.67969 43.0803 9.26317 47.494 14.9172 47.494H36.2697C41.9149 47.482 46.4847 43.0718 46.4847 37.6357V25.3073C46.4726 24.4147 45.7241 23.694 44.7972 23.6823Z" fill="black"/>
</svg>
