<svg width="45" height="38" viewBox="0 0 45 38" fill="none" xmlns="http://www.w3.org/2000/svg">
<path fill-rule="evenodd" clip-rule="evenodd" d="M38.7363 14.4242C40.106 14.4214 41.3652 15.0672 42.0089 16.1025C42.6775 17.1167 42.6419 18.3633 41.9165 19.3483L33.4669 30.1942C32.5885 31.4093 30.8686 31.9701 29.2689 31.5628C27.6693 31.1556 26.5864 29.8812 26.6259 28.4525V23.94H22.6692C21.3454 23.9445 20.1199 23.3427 19.4557 22.3621C18.7916 21.3815 18.7902 20.1717 19.4521 19.19L28.0311 6.33333C28.691 5.35457 29.91 4.75116 31.2297 4.75C33.272 4.75 34.9276 6.16776 34.9276 7.91667V14.4242H38.7363ZM31.0633 28.88L39.5129 18.0342C39.7275 17.7897 39.7584 17.4613 39.5924 17.1905C39.4264 16.9198 39.0932 16.7551 38.7363 16.7675H34.0031C32.982 16.7675 32.1542 16.0586 32.1542 15.1842V7.885C32.1542 7.67226 32.0543 7.46846 31.8769 7.31953C31.6995 7.1706 31.4596 7.08908 31.2112 7.09333C30.8727 7.09432 30.5643 7.26014 30.4162 7.52083L21.8372 20.3775C21.6802 20.6231 21.6865 20.9215 21.8536 21.1621C22.0207 21.4028 22.3238 21.5499 22.6507 21.5492H27.5319C28.553 21.5492 29.3808 22.258 29.3808 23.1325V28.4367C29.3857 28.7806 29.6494 29.0825 30.0333 29.1836C30.4172 29.2848 30.8335 29.1621 31.0633 28.88Z" fill="#393838"/>
<path d="M16.1795 9.2625H7.30462C6.53877 9.2625 5.91793 9.79416 5.91793 10.45C5.91793 11.1058 6.53877 11.6375 7.30462 11.6375H16.1795C16.9453 11.6375 17.5662 11.1058 17.5662 10.45C17.5662 9.79416 16.9453 9.2625 16.1795 9.2625Z" fill="#393838"/>
<path d="M15.3474 17.9392C15.3375 17.2869 14.7224 16.7602 13.9608 16.7517H5.08591C4.32006 16.7517 3.69922 17.2833 3.69922 17.9392C3.69922 18.595 4.32006 19.1267 5.08591 19.1267H13.9608C14.3285 19.1267 14.6812 19.0016 14.9413 18.7789C15.2013 18.5562 15.3474 18.2541 15.3474 17.9392Z" fill="#393838"/>
<path d="M16.1795 25.8875H7.30462C6.53877 25.8875 5.91793 26.4192 5.91793 27.075C5.91793 27.7308 6.53877 28.2625 7.30462 28.2625H16.1795C16.9453 28.2625 17.5662 27.7308 17.5662 27.075C17.5662 26.4192 16.9453 25.8875 16.1795 25.8875Z" fill="#393838"/>
</svg>
