<svg width="32" height="39" viewBox="0 0 32 39" fill="none" xmlns="http://www.w3.org/2000/svg">
<path fill-rule="evenodd" clip-rule="evenodd" d="M0.164062 1.85417C0.176089 0.995912 0.918901 0.302887 1.83881 0.291667L1.81648 0.25C2.74142 0.25 3.49123 0.949555 3.49123 1.8125V2.47917H17.4698C19.4975 2.37251 21.2353 3.81683 21.3552 5.70833V5.875C21.4751 7.7665 23.2129 9.21082 25.2406 9.10417H27.2727C29.2883 8.9965 31.0256 10.4136 31.1804 12.2917V23.3333C31.0605 25.2248 29.3227 26.6692 27.295 26.5625H13.897C11.8693 26.6692 10.1315 25.2248 10.0116 23.3333V23.2083C9.89172 21.3168 8.15388 19.8725 6.12617 19.9792H3.51356V37.2708C3.51356 38.1338 2.76375 38.8333 1.83881 38.8333C0.913873 38.8333 0.164062 38.1338 0.164062 37.2708V1.85417ZM17.8048 5.79167C17.6953 5.76215 17.5792 5.76215 17.4698 5.79167V5.83333H3.71454V16.7083H6.12617C10.0306 16.6122 13.312 19.4247 13.5397 23.0625C13.6505 23.0808 13.7639 23.0808 13.8747 23.0625H27.2727C27.3835 23.0808 27.4968 23.0808 27.6076 23.0625V12.2917C27.4982 12.2622 27.3821 12.2622 27.2727 12.2917H25.2406C21.2696 12.3971 17.9503 9.49554 17.8048 5.79167Z" fill="black"/>
</svg>
