<svg width="54" height="50" viewBox="0 0 54 50" fill="none" xmlns="http://www.w3.org/2000/svg">
<path fill-rule="evenodd" clip-rule="evenodd" d="M11.3441 31.2944C12.8824 28.6929 15.8167 27.0792 19.0012 27.0833C22.7687 27.1354 26.0755 29.4365 27.203 32.7908C28.3304 36.1452 27.0243 39.7959 23.9632 41.8458C20.9022 43.8957 16.7769 43.8823 13.7313 41.8125L10.4935 44.9583C10.1737 45.2584 9.74114 45.4303 9.28766 45.4375C8.85361 45.4417 8.43568 45.2843 8.1265 45C7.47346 44.39 7.47346 43.4017 8.1265 42.7917L11.3644 39.5833H11.61C9.90778 37.0723 9.8059 33.8959 11.3441 31.2944ZM13.6197 35.2292C13.6197 38.0021 16.0291 40.25 19.0012 40.25V40.1875C21.9474 40.1877 24.3461 37.9777 24.3827 35.2292C24.3827 32.4562 21.9733 30.2083 19.0012 30.2083C16.0291 30.2083 13.6197 32.4562 13.6197 35.2292Z" fill="black"/>
<path fill-rule="evenodd" clip-rule="evenodd" d="M29.8087 4.95833L45.4397 19.5417C45.8121 19.8309 46.032 20.2564 46.0426 20.7083V35.2917C46.0426 37.9162 44.9251 40.4333 42.936 42.2891C40.9468 44.1449 38.2489 45.1875 35.4359 45.1875H29.0272C28.1022 45.1875 27.3524 44.4879 27.3524 43.625C27.3524 42.7621 28.1022 42.0625 29.0272 42.0625H35.3242C39.3323 42.0625 42.5815 39.0311 42.5815 35.2917V22.2708H33.0912C29.7049 22.2594 26.9627 19.7011 26.9505 16.5417V7.6875H21.9262C17.9232 7.69894 14.6812 10.7237 14.669 14.4583V24.875C14.669 25.7379 13.9192 26.4375 12.9942 26.4375C12.0693 26.4375 11.3195 25.7379 11.3195 24.875V14.4583C11.3016 11.823 12.4113 9.28985 14.4023 7.42048C16.3934 5.55112 19.1015 4.49995 21.9262 4.5H28.6252C29.0692 4.50036 29.4949 4.66522 29.8087 4.95833ZM30.3 9.83333V16.5417C30.3 17.9799 31.5497 19.1458 33.0912 19.1458H40.1921L30.3 9.83333Z" fill="black"/>
</svg>
