<svg width="21" height="26" viewBox="0 0 21 26" fill="none" xmlns="http://www.w3.org/2000/svg">
<path d="M4.22266 25.1328C3.08984 25.1328 2.23828 24.8516 1.66797 24.2891C1.10547 23.7266 0.824219 22.8906 0.824219 21.7812V10.6133C0.824219 9.49609 1.10547 8.66016 1.66797 8.10547C2.23828 7.54297 3.08984 7.26172 4.22266 7.26172H7.70312V8.87891H4.24609C3.66797 8.87891 3.22266 9.03125 2.91016 9.33594C2.60547 9.64062 2.45312 10.0977 2.45312 10.707V21.6992C2.45312 22.293 2.60547 22.7422 2.91016 23.0469C3.22266 23.3516 3.66797 23.5039 4.24609 23.5039H16.9141C17.4922 23.5039 17.9375 23.3516 18.25 23.0469C18.5625 22.7422 18.7188 22.293 18.7188 21.6992V10.707C18.7188 10.0977 18.5625 9.64062 18.25 9.33594C17.9375 9.03125 17.4922 8.87891 16.9141 8.87891H13.457V7.26172H16.9375C18.0703 7.26172 18.918 7.54297 19.4805 8.10547C20.0508 8.66797 20.3359 9.50391 20.3359 10.6133V21.7812C20.3359 22.8906 20.0508 23.7266 19.4805 24.2891C18.918 24.8516 18.0703 25.1328 16.9375 25.1328H4.22266ZM10.5859 16.5195C10.3672 16.5195 10.1758 16.4414 10.0117 16.2852C9.85547 16.1289 9.77734 15.9453 9.77734 15.7344V4.13281L9.83594 2.49219L8.99219 3.38281L7.23438 5.22266C7.09375 5.38672 6.91016 5.46875 6.68359 5.46875C6.47266 5.46875 6.29688 5.40234 6.15625 5.26953C6.02344 5.13672 5.95703 4.96875 5.95703 4.76562C5.95703 4.57031 6.03516 4.39453 6.19141 4.23828L10 0.546875C10.1016 0.445312 10.1953 0.375 10.2812 0.335938C10.375 0.296875 10.4766 0.277344 10.5859 0.277344C10.6875 0.277344 10.7812 0.296875 10.8672 0.335938C10.9609 0.375 11.0586 0.445312 11.1602 0.546875L14.9688 4.23828C15.125 4.39453 15.2031 4.57031 15.2031 4.76562C15.2031 4.96875 15.1328 5.13672 14.9922 5.26953C14.8516 5.40234 14.6758 5.46875 14.4648 5.46875C14.2461 5.46875 14.0664 5.38672 13.9258 5.22266L12.168 3.38281L11.3242 2.50391L11.3828 4.13281V15.7344C11.3828 15.9453 11.3008 16.1289 11.1367 16.2852C10.9805 16.4414 10.7969 16.5195 10.5859 16.5195Z" fill="black"/>
</svg>
