<svg width="48" height="46" viewBox="0 0 48 46" fill="none" xmlns="http://www.w3.org/2000/svg">
<path d="M23.4177 3.26421C23.4756 3.08605 23.561 2.99778 23.6383 2.94506C23.7284 2.88366 23.8545 2.84116 24 2.84116C24.1455 2.84116 24.2716 2.88366 24.3617 2.94506C24.439 2.99777 24.5244 3.08605 24.5823 3.2642L28.2468 14.5425C28.8643 16.4429 30.6352 17.7295 32.6333 17.7295H44.492C44.6794 17.7295 44.7897 17.7834 44.8637 17.8407C44.95 17.9074 45.0294 18.0142 45.0743 18.1525C45.1193 18.2909 45.1178 18.424 45.0873 18.5286C45.061 18.6185 45.0035 18.7269 44.8519 18.8371L35.258 25.8074C33.6415 26.9819 32.9651 29.0637 33.5825 30.9641L37.2471 42.2424C37.3049 42.4205 37.2878 42.5421 37.2562 42.6302C37.2194 42.7328 37.1423 42.8414 37.0246 42.9269C36.9069 43.0124 36.7799 43.0521 36.671 43.0554C36.5774 43.0582 36.4565 43.037 36.3049 42.9269L26.711 35.9565C25.0945 34.782 22.9055 34.782 21.289 35.9565L11.6951 42.9269C11.5435 43.037 11.4226 43.0582 11.329 43.0554C11.2201 43.0521 11.0931 43.0124 10.9754 42.9269C10.8577 42.8414 10.7806 42.7328 10.7438 42.6302C10.7122 42.5421 10.6951 42.4205 10.7529 42.2424L14.4175 30.9641C15.035 29.0637 14.3585 26.9819 12.742 25.8074L3.1481 18.8371C2.99655 18.7269 2.93897 18.6185 2.91273 18.5286C2.88218 18.424 2.88073 18.2909 2.92569 18.1525C2.97064 18.0142 3.05005 17.9074 3.13627 17.8407C3.21031 17.7834 3.32064 17.7295 3.50797 17.7295H15.3667C17.3648 17.7295 19.1357 16.4429 19.7532 14.5425L23.4177 3.26421Z" stroke="#1A1A1A" stroke-width="4"/>
</svg>
