<svg width="52" height="49" viewBox="0 0 52 49" fill="none" xmlns="http://www.w3.org/2000/svg">
<path d="M25.4177 3.2642C25.4756 3.08604 25.561 2.99777 25.6383 2.94505C25.7284 2.88366 25.8545 2.84115 26 2.84115C26.1455 2.84115 26.2716 2.88366 26.3617 2.94505C26.439 2.99777 26.5244 3.08605 26.5823 3.26421L30.6959 15.9245C31.3133 17.8248 33.0842 19.1115 35.0824 19.1115H48.3942C48.5815 19.1115 48.6918 19.1653 48.7658 19.2226C48.8521 19.2893 48.9315 19.3961 48.9764 19.5345C49.0214 19.6729 49.0199 19.806 48.9894 19.9106C48.9631 20.0005 48.9056 20.1089 48.754 20.219L37.9845 28.0435C36.368 29.218 35.6916 31.2998 36.3091 33.2001L40.4226 45.8604C40.4805 46.0386 40.4633 46.1601 40.4318 46.2483C40.395 46.3509 40.3179 46.4594 40.2002 46.5449C40.0825 46.6304 39.9555 46.6702 39.8465 46.6735C39.753 46.6763 39.632 46.655 39.4805 46.5449L28.711 38.7204C27.0945 37.546 24.9055 37.546 23.289 38.7204L12.5195 46.5449C12.368 46.655 12.247 46.6763 12.1535 46.6735C12.0445 46.6702 11.9175 46.6304 11.7998 46.5449C11.6821 46.4594 11.605 46.3509 11.5682 46.2483C11.5367 46.1601 11.5195 46.0386 11.5774 45.8604L15.6909 33.2001C16.3084 31.2998 15.632 29.218 14.0155 28.0435L3.24598 20.219C3.09443 20.1089 3.03685 20.0005 3.01061 19.9106C2.98006 19.806 2.97861 19.6729 3.02357 19.5345C3.06853 19.3961 3.14793 19.2893 3.23415 19.2226C3.3082 19.1653 3.41853 19.1115 3.60585 19.1115H16.9176C18.9158 19.1115 20.6867 17.8248 21.3041 15.9245L25.4177 3.2642Z" stroke="white" stroke-width="4"/>
</svg>
